<svg id="visual" viewBox="0 0 960 540" width="960" height="540" xmlns="http://www.w3.org/2000/svg" xmlns:xlink="http://www.w3.org/1999/xlink" version="1.1"><path d="M0 44L120 44L120 44L240 44L240 17L360 17L360 66L480 66L480 17L600 17L600 50L720 50L720 6L840 6L840 82L960 82L960 66L960 0L960 0L840 0L840 0L720 0L720 0L600 0L600 0L480 0L480 0L360 0L360 0L240 0L240 0L120 0L120 0L0 0Z" fill="#093637"></path><path d="M0 55L120 55L120 66L240 66L240 141L360 141L360 82L480 82L480 28L600 28L600 114L720 114L720 71L840 71L840 93L960 93L960 147L960 64L960 80L840 80L840 4L720 4L720 48L600 48L600 15L480 15L480 64L360 64L360 15L240 15L240 42L120 42L120 42L0 42Z" fill="#195a57"></path><path d="M0 131L120 131L120 141L240 141L240 158L360 158L360 104L480 104L480 50L600 50L600 163L720 163L720 87L840 87L840 168L960 168L960 168L960 145L960 91L840 91L840 69L720 69L720 112L600 112L600 26L480 26L480 80L360 80L360 139L240 139L240 64L120 64L120 53L0 53Z" fill="#2f8075"></path><path d="M0 141L120 141L120 168L240 168L240 163L360 163L360 114L480 114L480 109L600 109L600 201L720 201L720 93L840 93L840 217L960 217L960 206L960 166L960 166L840 166L840 85L720 85L720 161L600 161L600 48L480 48L480 102L360 102L360 156L240 156L240 139L120 139L120 129L0 129Z" fill="#44a08d"></path><path d="M0 249L120 249L120 271L240 271L240 233L360 233L360 131L480 131L480 260L600 260L600 298L720 298L720 185L840 185L840 287L960 287L960 303L960 204L960 215L840 215L840 91L720 91L720 199L600 199L600 107L480 107L480 112L360 112L360 161L240 161L240 166L120 166L120 139L0 139Z" fill="#44a08d"></path><path d="M0 455L120 455L120 455L240 455L240 303L360 303L360 379L480 379L480 438L600 438L600 374L720 374L720 411L840 411L840 314L960 314L960 352L960 301L960 285L840 285L840 183L720 183L720 296L600 296L600 258L480 258L480 129L360 129L360 231L240 231L240 269L120 269L120 247L0 247Z" fill="#2f8075"></path><path d="M0 482L120 482L120 465L240 465L240 325L360 325L360 417L480 417L480 498L600 498L600 417L720 417L720 455L840 455L840 320L960 320L960 411L960 350L960 312L840 312L840 409L720 409L720 372L600 372L600 436L480 436L480 377L360 377L360 301L240 301L240 453L120 453L120 453L0 453Z" fill="#195a57"></path><path d="M0 541L120 541L120 541L240 541L240 541L360 541L360 541L480 541L480 541L600 541L600 541L720 541L720 541L840 541L840 541L960 541L960 541L960 409L960 318L840 318L840 453L720 453L720 415L600 415L600 496L480 496L480 415L360 415L360 323L240 323L240 463L120 463L120 480L0 480Z" fill="#093637"></path></svg>